<mxfile host="app.diagrams.net" modified="2021-02-09T13:03:46.806Z" agent="5.0 (Windows NT 10.0; Win64; x64) AppleWebKit/537.36 (KHTML, like Gecko) Chrome/88.0.4324.150 Safari/537.36" etag="HEcmJtR8ffAvkFkq_mj0" version="14.3.0" type="github">
  <diagram id="hXC2HiEqgEhOLiWNAtK9" name="Page-1">
    <mxGraphModel dx="1662" dy="762" grid="1" gridSize="10" guides="1" tooltips="1" connect="1" arrows="1" fold="1" page="1" pageScale="1" pageWidth="827" pageHeight="1169" math="0" shadow="0">
      <root>
        <mxCell id="0" />
        <mxCell id="1" parent="0" />
        <mxCell id="6mCTrNG2S78WRFY4-rh1-1" value="Punkt 1" style="rounded=0;whiteSpace=wrap;html=1;" vertex="1" parent="1">
          <mxGeometry x="60" y="140" width="120" height="60" as="geometry" />
        </mxCell>
        <mxCell id="6mCTrNG2S78WRFY4-rh1-2" value="punkt 2" style="rounded=0;whiteSpace=wrap;html=1;" vertex="1" parent="1">
          <mxGeometry x="570" y="140" width="120" height="60" as="geometry" />
        </mxCell>
        <mxCell id="6mCTrNG2S78WRFY4-rh1-3" value="(punkt 2 blir punkt 1)" style="whiteSpace=wrap;html=1;" vertex="1" parent="1">
          <mxGeometry x="300" y="270" width="120" height="60" as="geometry" />
        </mxCell>
        <mxCell id="6mCTrNG2S78WRFY4-rh1-5" value="Velger nÃ¦rmeste nabo" style="rounded=0;whiteSpace=wrap;html=1;" vertex="1" parent="1">
          <mxGeometry x="270" y="140" width="120" height="60" as="geometry" />
        </mxCell>
      </root>
    </mxGraphModel>
  </diagram>
</mxfile>
